<?xml version="1.0" encoding="UTF-8" standalone="no"?>
<!DOCTYPE svg PUBLIC "-//W3C//DTD SVG 1.1//EN"
 "http://www.w3.org/Graphics/SVG/1.1/DTD/svg11.dtd">
<!-- Generated by graphviz version 2.47.0 (20210316.0004)
 -->
<!-- Title: dependencies Pages: 1 -->
<svg width="1105pt" height="287pt"
 viewBox="0.00 0.00 1105.00 287.00" xmlns="http://www.w3.org/2000/svg" xmlns:xlink="http://www.w3.org/1999/xlink">
<g id="graph0" class="graph" transform="scale(1 1) rotate(0) translate(4 283)">
<title>dependencies</title>
<polygon fill="white" stroke="transparent" points="-4,4 -4,-283 1101,-283 1101,4 -4,4"/>
<text text-anchor="start" x="527.51" y="-42.4" font-family="Times-12" font-weight="bold" font-size="14.00">Legend</text>
<polygon fill="#ffffb3" stroke="transparent" points="314.5,-10 314.5,-30 334.5,-30 334.5,-10 314.5,-10"/>
<text text-anchor="start" x="338.13" y="-15.4" font-family="Times-12" font-size="14.00"> &#160;Declarations</text>
<polygon fill="#8dd3c7" stroke="transparent" points="427.5,-10 427.5,-30 447.5,-30 447.5,-10 427.5,-10"/>
<text text-anchor="start" x="451.23" y="-15.4" font-family="Times-12" font-size="14.00"> &#160;Module</text>
<polygon fill="#80b1d3" stroke="transparent" points="513.5,-10 513.5,-30 533.5,-30 533.5,-10 513.5,-10"/>
<text text-anchor="start" x="537.28" y="-15.4" font-family="Times-12" font-size="14.00"> &#160;Bootstrap</text>
<polygon fill="#fdb462" stroke="transparent" points="610.5,-10 610.5,-30 630.5,-30 630.5,-10 610.5,-10"/>
<text text-anchor="start" x="634.17" y="-15.4" font-family="Times-12" font-size="14.00"> &#160;Providers</text>
<polygon fill="#fb8072" stroke="transparent" points="706.5,-10 706.5,-30 726.5,-30 726.5,-10 706.5,-10"/>
<text text-anchor="start" x="730.23" y="-15.4" font-family="Times-12" font-size="14.00"> &#160;Exports</text>
<g id="clust1" class="cluster">
<title>cluster_AppModule</title>
<polygon fill="none" stroke="black" stroke-dasharray="1,5" points="168,-70 168,-271 535,-271 535,-70 168,-70"/>
</g>
<g id="clust6" class="cluster">
<title>cluster_AppModule_providers</title>
<polygon fill="none" stroke="black" points="397,-154 397,-206 527,-206 527,-154 397,-154"/>
</g>
<g id="clust3" class="cluster">
<title>cluster_AppModule_imports</title>
<polygon fill="none" stroke="black" points="176,-78 176,-206 389,-206 389,-78 176,-78"/>
</g>
<g id="clust13" class="cluster">
<title>cluster_PostsModule</title>
<polygon fill="none" stroke="black" stroke-dasharray="1,5" points="8,-70 8,-138 160,-138 160,-70 8,-70"/>
</g>
<g id="clust18" class="cluster">
<title>cluster_PostsModule_providers</title>
<polygon fill="none" stroke="black" points="16,-78 16,-130 152,-130 152,-78 16,-78"/>
</g>
<g id="clust7" class="cluster">
<title>cluster_AuthModule</title>
<polygon fill="none" stroke="black" stroke-dasharray="1,5" points="543,-146 543,-214 807,-214 807,-146 543,-146"/>
</g>
<g id="clust10" class="cluster">
<title>cluster_AuthModule_exports</title>
<polygon fill="none" stroke="black" points="693,-154 693,-206 799,-206 799,-154 693,-154"/>
</g>
<g id="clust12" class="cluster">
<title>cluster_AuthModule_providers</title>
<polygon fill="none" stroke="black" points="551,-154 551,-206 685,-206 685,-154 551,-154"/>
</g>
<g id="clust19" class="cluster">
<title>cluster_UsersModule</title>
<polygon fill="none" stroke="black" stroke-dasharray="1,5" points="815,-146 815,-214 1089,-214 1089,-146 815,-146"/>
</g>
<g id="clust22" class="cluster">
<title>cluster_UsersModule_exports</title>
<polygon fill="none" stroke="black" points="971,-154 971,-206 1081,-206 1081,-154 971,-154"/>
</g>
<g id="clust24" class="cluster">
<title>cluster_UsersModule_providers</title>
<polygon fill="none" stroke="black" points="823,-154 823,-206 963,-206 963,-154 823,-154"/>
</g>
<!-- AuthModule -->
<g id="node1" class="node">
<title>AuthModule</title>
<polygon fill="#8dd3c7" stroke="black" points="271.55,-122 268.55,-126 247.55,-126 244.55,-122 184.45,-122 184.45,-86 271.55,-86 271.55,-122"/>
<text text-anchor="middle" x="228" y="-99.8" font-family="Times,serif" font-size="14.00">AuthModule</text>
</g>
<!-- AppModule -->
<g id="node4" class="node">
<title>AppModule</title>
<polygon fill="#8dd3c7" stroke="black" points="366.66,-263 363.66,-267 342.66,-267 339.66,-263 283.34,-263 283.34,-227 366.66,-227 366.66,-263"/>
<text text-anchor="middle" x="325" y="-240.8" font-family="Times,serif" font-size="14.00">AppModule</text>
</g>
<!-- AuthModule&#45;&gt;AppModule -->
<g id="edge1" class="edge">
<title>AuthModule&#45;&gt;AppModule</title>
<path fill="none" stroke="black" d="M195.34,-122.14C195.34,-160.23 195.34,-245 195.34,-245 195.34,-245 273.26,-245 273.26,-245"/>
<polygon fill="black" stroke="black" points="273.26,-248.5 283.26,-245 273.26,-241.5 273.26,-248.5"/>
</g>
<!-- AuthService  -->
<g id="node6" class="node">
<title>AuthService </title>
<polygon fill="#fb8072" stroke="black" points="790.98,-198 701.02,-198 701.02,-162 790.98,-162 790.98,-198"/>
<text text-anchor="middle" x="746" y="-175.8" font-family="Times,serif" font-size="14.00">AuthService </text>
</g>
<!-- AuthModule&#45;&gt;AuthService  -->
<g id="edge5" class="edge">
<title>AuthModule&#45;&gt;AuthService </title>
<path fill="none" stroke="black" stroke-dasharray="5,2" d="M228.22,-122.24C228.22,-129.43 228.22,-136 228.22,-136 228.22,-136 746,-136 746,-136 746,-136 746,-151.85 746,-151.85"/>
<polygon fill="black" stroke="black" points="742.5,-151.85 746,-161.85 749.5,-151.85 742.5,-151.85"/>
</g>
<!-- PostsModule -->
<g id="node2" class="node">
<title>PostsModule</title>
<polygon fill="#8dd3c7" stroke="black" points="295.61,-198 292.61,-202 271.61,-202 268.61,-198 206.39,-198 206.39,-162 295.61,-162 295.61,-198"/>
<text text-anchor="middle" x="251" y="-175.8" font-family="Times,serif" font-size="14.00">PostsModule</text>
</g>
<!-- PostsModule&#45;&gt;AppModule -->
<g id="edge2" class="edge">
<title>PostsModule&#45;&gt;AppModule</title>
<path fill="none" stroke="black" d="M289.36,-198.11C289.36,-198.11 289.36,-216.99 289.36,-216.99"/>
<polygon fill="black" stroke="black" points="285.86,-216.99 289.36,-226.99 292.86,-216.99 285.86,-216.99"/>
</g>
<!-- UsersModule -->
<g id="node3" class="node">
<title>UsersModule</title>
<polygon fill="#8dd3c7" stroke="black" points="380.92,-122 377.92,-126 356.92,-126 353.92,-122 289.08,-122 289.08,-86 380.92,-86 380.92,-122"/>
<text text-anchor="middle" x="335" y="-99.8" font-family="Times,serif" font-size="14.00">UsersModule</text>
</g>
<!-- UsersModule&#45;&gt;PostsModule -->
<g id="edge7" class="edge">
<title>UsersModule&#45;&gt;PostsModule</title>
<path fill="none" stroke="black" d="M289.04,-104C283.94,-104 280.53,-104 280.53,-104 280.53,-104 280.53,-151.99 280.53,-151.99"/>
<polygon fill="black" stroke="black" points="277.03,-151.99 280.53,-161.99 284.03,-151.99 277.03,-151.99"/>
</g>
<!-- UsersModule&#45;&gt;AppModule -->
<g id="edge3" class="edge">
<title>UsersModule&#45;&gt;AppModule</title>
<path fill="none" stroke="black" d="M319.31,-122.14C319.31,-122.14 319.31,-216.93 319.31,-216.93"/>
<polygon fill="black" stroke="black" points="315.81,-216.92 319.31,-226.93 322.81,-216.93 315.81,-216.92"/>
</g>
<!-- UsersService  -->
<g id="node9" class="node">
<title>UsersService </title>
<polygon fill="#fb8072" stroke="black" points="1072.85,-198 979.15,-198 979.15,-162 1072.85,-162 1072.85,-198"/>
<text text-anchor="middle" x="1026" y="-175.8" font-family="Times,serif" font-size="14.00">UsersService </text>
</g>
<!-- UsersModule&#45;&gt;UsersService  -->
<g id="edge9" class="edge">
<title>UsersModule&#45;&gt;UsersService </title>
<path fill="none" stroke="black" stroke-dasharray="5,2" d="M380.87,-98C535.21,-98 1026,-98 1026,-98 1026,-98 1026,-151.8 1026,-151.8"/>
<polygon fill="black" stroke="black" points="1022.5,-151.8 1026,-161.8 1029.5,-151.8 1022.5,-151.8"/>
</g>
<!-- AppService -->
<g id="node5" class="node">
<title>AppService</title>
<ellipse fill="#fdb462" stroke="black" cx="462" cy="-180" rx="56.74" ry="18"/>
<text text-anchor="middle" x="462" y="-175.8" font-family="Times,serif" font-size="14.00">AppService</text>
</g>
<!-- AppService&#45;&gt;AppModule -->
<g id="edge4" class="edge">
<title>AppService&#45;&gt;AppModule</title>
<path fill="none" stroke="black" d="M405.32,-180C374.69,-180 343.07,-180 343.07,-180 343.07,-180 343.07,-216.89 343.07,-216.89"/>
<polygon fill="black" stroke="black" points="339.57,-216.89 343.07,-226.89 346.57,-216.89 339.57,-216.89"/>
</g>
<!-- AuthService -->
<g id="node7" class="node">
<title>AuthService</title>
<ellipse fill="#fdb462" stroke="black" cx="618" cy="-180" rx="59.11" ry="18"/>
<text text-anchor="middle" x="618" y="-175.8" font-family="Times,serif" font-size="14.00">AuthService</text>
</g>
<!-- AuthService&#45;&gt;AuthModule -->
<g id="edge6" class="edge">
<title>AuthService&#45;&gt;AuthModule</title>
<path fill="none" stroke="black" d="M618,-161.97C618,-155.15 618,-149 618,-149 618,-149 250,-149 250,-149 250,-149 250,-132.04 250,-132.04"/>
<polygon fill="black" stroke="black" points="253.5,-132.04 250,-122.04 246.5,-132.04 253.5,-132.04"/>
</g>
<!-- PostsService -->
<g id="node8" class="node">
<title>PostsService</title>
<ellipse fill="#fdb462" stroke="black" cx="84" cy="-104" rx="60.27" ry="18"/>
<text text-anchor="middle" x="84" y="-99.8" font-family="Times,serif" font-size="14.00">PostsService</text>
</g>
<!-- PostsService&#45;&gt;PostsModule -->
<g id="edge8" class="edge">
<title>PostsService&#45;&gt;PostsModule</title>
<path fill="none" stroke="black" d="M84,-122.01C84,-144.49 84,-180 84,-180 84,-180 196.25,-180 196.25,-180"/>
<polygon fill="black" stroke="black" points="196.25,-183.5 206.25,-180 196.25,-176.5 196.25,-183.5"/>
</g>
<!-- UsersService -->
<g id="node10" class="node">
<title>UsersService</title>
<ellipse fill="#fdb462" stroke="black" cx="893" cy="-180" rx="61.95" ry="18"/>
<text text-anchor="middle" x="893" y="-175.8" font-family="Times,serif" font-size="14.00">UsersService</text>
</g>
<!-- UsersService&#45;&gt;UsersModule -->
<g id="edge10" class="edge">
<title>UsersService&#45;&gt;UsersModule</title>
<path fill="none" stroke="black" d="M893,-161.97C893,-141.23 893,-110 893,-110 893,-110 391.14,-110 391.14,-110"/>
<polygon fill="black" stroke="black" points="391.14,-106.5 381.14,-110 391.14,-113.5 391.14,-106.5"/>
</g>
</g>
</svg>
